<svg xmlns="http://www.w3.org/2000/svg" viewBox="0 0 1080 303.65"><defs><style>.a{fill:#ff7276;}</style></defs><title>Woven_Forly</title><path class="a" d="M447.91,70.49c8.74,0,13.11,2.66,13.11,8.21v112c0,7.94,2.37,14.44,6.88,19.5a21.63,21.63,0,0,0,16.83,7.46q10.68,0,17.07-7.22c4.27-4.82,6.4-11.55,6.4-20v-112c0-5.54,4.37-8.21,13.11-8.21s13.11,2.67,13.11,8.21v110q0,23.64-13.9,38.11c-9.27,9.64-21.09,14.35-35.68,14.35a46.89,46.89,0,0,1-22.25-5.18,42.67,42.67,0,0,1-16-14.11,42.67,42.67,0,0,1-16,14.11A46.88,46.88,0,0,1,408.37,241c-14.6,0-26.42-4.94-35.69-14.58s-13.9-22.35-13.9-38.11V78.64c0-6.1,4.81-9,14.42-9s14.42,2.93,14.42,9V191c0,8,2,14.1,6.05,18.65s9.4,6.82,16.11,6.82a20.43,20.43,0,0,0,15.9-7c4.26-4.77,6.5-10.91,6.5-18.42V78.5c0-4.35,4.6-8,11.9-8Z"></path><path class="a" d="M670.73,186.42c0,16.2-5.31,29.35-15.72,39.22s-23.6,14.79-39.33,14.79-28.91-4.93-39.32-14.79-15.73-23-15.73-39.22V123.49c0-16.2,5.32-29.35,15.73-39.22S600,69.48,615.68,69.48,644.6,74.41,655,84.27s15.72,23,15.72,39.22Zm-28.83-62c0-9.63-2.54-17.14-7.64-22.78s-11.79-8.45-19.89-8.45-14.8,2.82-19.89,8.45-7.63,13.15-7.63,22.78v61c0,9.63,2.54,17.14,7.63,22.78s11.8,8.45,19.89,8.45,14.8-2.82,19.89-8.45,7.64-13.15,7.64-22.78Z"></path><path class="a" d="M736.83,228.74c-10-12.51-19-27.89-26.76-45.93a122.06,122.06,0,0,1-10.18-49V78.64c0-6.1,4.8-9,14.41-9s14.42,2.93,14.42,9v55.7a99,99,0,0,0,6.77,36.24c4.66,12.55,11.66,25.57,20.76,39.07,9.1-13.5,16.1-26.52,20.76-39.07a99,99,0,0,0,6.76-36.24V78.64c0-6.1,4.81-9,14.42-9s14.42,2.93,14.42,9v55.13a122.06,122.06,0,0,1-10.18,49c-7.82,18-16.82,33.42-26.76,45.93-6.63,8.17-13,12.26-19.42,12.26S743.46,236.91,736.83,228.74Z"></path><path class="a" d="M849.69,238.84c-5.29,0-7.93-3-7.93-9.25V80.32c0-6.24,2.64-9.25,7.93-9.25h79.55c5,0,7.69,3.93,7.69,11.8s-2.65,11.79-7.69,11.79H870.6v44.57h49.89c4.78,0,7.29,3.93,7.29,11.79s-2.51,11.8-7.29,11.8H870.6v52.43h59.83c5.05,0,7.7,3.93,7.7,11.8s-2.65,11.79-7.7,11.79Z"></path><path class="a" d="M995.64,231.35c0,6-4.73,8.88-14.19,8.88s-14.17-2.88-14.17-8.88V123.43c0-16.45,5.4-29.8,16.2-39.81s24.19-15,40.16-15,29.35,5,40.16,15S1080,107,1080,123.43V231.27c0,6.1-4.81,9-14.42,9s-14.42-2.93-14.42-9V124.06c0-9.63-2.55-17.14-7.63-22.78s-11.8-8.45-19.89-8.45-14.81,2.82-19.89,8.45-7.64,13.15-7.64,22.78Z"></path><path class="a" d="M264.69,203v48.83H276c11.41,0,21.78-7.58,24.31-18.71A24.46,24.46,0,0,0,276.51,203Z"></path><path class="a" d="M192.73,203H25.24c-11.4,0-21.78,7.59-24.3,18.71A24.45,24.45,0,0,0,24.7,251.83h168Z"></path><path class="a" d="M251.84,36v-11c0-11.43-7.61-21.83-18.76-24.31A24.41,24.41,0,0,0,203,24.24V36Z"></path><path class="a" d="M203,110.5V278.7c0,11.43,7.61,21.83,18.76,24.32a24.4,24.4,0,0,0,30.07-23.61V110.5Z"></path><path class="a" d="M36,48.82H25.16C12.93,48.82,2,57.5.26,69.62a24.42,24.42,0,0,0,24.15,28H36Z"></path><path class="a" d="M110.5,48.82V97.65h166c12.24,0,23.17-8.68,24.92-20.79a24.43,24.43,0,0,0-24.16-28Z"></path><path class="a" d="M97.66,192.73V26.6c0-11.42-7.6-21.83-18.75-24.32A24.41,24.41,0,0,0,48.83,25.89V192.73Z"></path><path class="a" d="M48.83,264.68v13.11c0,11.42,7.6,21.83,18.75,24.32A24.41,24.41,0,0,0,97.66,278.5V264.68Z"></path></svg>